PathFileType	4	(X/Y/Z)	D:\TRACE\v60_Jaco2_6-2-23\JustBodyDRS_Motion1_9-v60.trc
DataRate	CameraRate	NumFrames	NumMarkers	Units	OrigDataRate	OrigDataStartFrame	OrigNumFrames
100.00	100.00	      38	9	mm	100.00	845	      6756
Frame#	Time	front left toe			Front right toe			aft left toe			aft right toe			Arm			FL body			FR body			AL Body			AR Body			
		X1	Y1	Z1	X2	Y2	Z2	X3	Y3	Z3	X4	Y4	Z4	X5	Y5	Z5	X6	Y6	Z6	X7	Y7	Z7	X8	Y8	Z8	X9	Y9	Z9	

845	8.440	-260.64517	23.41403	-274.84634	110.17417	67.24504	-263.36234	-269.68811	50.07244	363.92947	121.32710	10.02270	348.40744	-181.72827	1220.42725	-377.53488	-152.51845	589.03119	-403.42136	7.72018	590.14642	-405.44342	-141.35909	539.94141	541.52698	14.50413	534.86230	539.40216	
846	8.450	-259.53735	23.21038	-274.67148	109.86514	57.53557	-262.55753	-269.50043	40.29069	364.25247	122.00477	10.02827	348.33871	-181.36446	1220.21912	-377.03976	-151.59245	588.50995	-402.66690	7.73837	589.57751	-404.68039	-140.46091	539.98090	541.97205	14.99079	534.83551	539.65607	
847	8.460	-258.74591	23.02859	-274.78110	109.71459	48.04664	-261.66772	-269.19427	31.21149	364.79041	122.91463	10.28812	348.37274	-180.26907	1220.10046	-376.41727	-152.16800	588.69800	-402.62619	8.38698	589.46222	-404.61453	-139.85864	539.96014	542.22723	15.70833	534.69098	540.10004	
848	8.470	-257.66086	22.54825	-274.87186	109.76900	39.33010	-261.15033	-268.50113	22.93638	365.48438	124.13071	10.61072	348.36014	-178.97090	1219.70935	-376.75186	-151.80806	588.46490	-402.03766	8.51129	589.22913	-404.17429	-139.56007	539.92938	542.87250	16.14525	534.45251	540.67291	
849	8.480	-256.82788	22.19395	-274.93411	110.24769	31.97395	-260.98154	-267.10822	17.00498	365.73862	124.84021	10.86579	348.30453	-179.15956	1219.37292	-376.13538	-151.51065	588.10132	-401.61594	8.90790	588.90826	-403.68808	-138.93671	539.69055	543.33990	16.75183	533.76263	540.22467	
850	8.490	-256.02521	22.08887	-275.09637	111.64796	25.94755	-260.67654	-265.80106	13.14159	365.11984	125.89007	11.20402	348.23886	-178.16376	1219.09338	-375.76587	-150.45007	587.66260	-400.85379	9.20744	588.50269	-403.16092	-138.49908	539.33789	543.66449	17.33835	533.93256	541.38220	
851	8.500	-254.80295	21.67793	-275.12851	112.41177	23.75618	-262.80130	-265.33777	11.94233	364.63956	126.93213	11.35397	348.17361	-178.11812	1218.78784	-375.64569	-151.01294	587.75153	-400.92706	9.50360	588.26678	-402.89658	-137.57756	539.42755	544.02747	17.84007	533.92346	541.52734	
852	8.510	-253.98746	21.61590	-275.12689	113.98943	20.59446	-262.13992	-265.43588	12.23974	363.03525	127.69670	11.77101	347.98276	-177.61426	1218.78137	-374.87692	-150.90788	587.62421	-400.48395	9.31989	587.93463	-402.46713	-137.19684	540.27020	544.50555	18.22933	534.20978	541.17072	
853	8.520	-253.10892	21.79102	-274.89746	115.29739	21.13249	-263.16275	-264.14902	12.17097	364.54077	128.11542	12.11926	348.10992	-177.67030	1218.91089	-374.60397	-150.68469	587.75128	-399.90591	9.54921	588.46130	-402.32736	-136.40268	541.00348	545.33374	18.67973	535.87085	542.59503	
854	8.530	-251.84044	22.49700	-275.23941	115.74627	20.79979	-262.92389	-262.63196	11.49098	365.30511	129.30165	13.30587	347.74567	-178.06541	1219.98914	-374.88568	-150.53618	588.60602	-399.38739	9.69776	589.65753	-401.78894	-136.07028	542.08374	545.56818	18.51872	536.57721	542.90735	
855	8.540	-248.34219	26.01292	-274.66782	116.19070	20.75413	-262.56778	-262.34662	11.21596	364.43625	129.01428	15.63220	348.74191	-178.38074	1221.00684	-375.43799	-150.21271	589.69501	-399.08551	9.86009	590.84003	-401.10736	-135.26031	542.43353	545.82825	20.43724	536.71100	543.30841	
856	8.550	-244.08682	29.20784	-270.42606	116.84608	20.98104	-263.49625	-261.42368	11.28816	364.20132	126.86917	18.54082	352.10727	-179.90302	1221.64575	-374.40530	-149.03152	590.75464	-398.50586	10.36716	591.88135	-401.41003	-134.58354	542.56696	546.01257	20.87765	536.84607	543.42035	
857	8.560	-240.42105	36.74411	-267.73441	118.00671	20.35437	-263.41397	-259.88855	10.94001	364.06366	123.86131	25.37582	354.17505	-179.77689	1222.43237	-373.83005	-149.28018	591.32544	-398.95392	11.34261	592.35718	-401.18896	-134.22742	542.68506	546.03687	21.41315	537.31952	543.36743	
858	8.570	-239.23344	45.53395	-267.28409	119.37513	19.90241	-263.46603	-259.25986	11.66681	363.92511	121.95561	34.25027	354.30463	-180.02304	1222.46851	-372.75143	-148.64839	590.95801	-398.83435	12.02871	592.41730	-401.11981	-133.87006	543.06537	546.21252	21.66428	537.91888	543.42560	
859	8.580	-237.71519	56.21421	-267.48325	120.20638	19.61415	-263.70538	-258.45422	11.65601	364.04562	122.52095	46.05118	354.05029	-179.94351	1222.49915	-371.77512	-147.74187	590.27618	-398.52338	11.96406	592.12347	-400.96527	-133.17105	543.19904	546.51990	21.94701	538.34491	543.75055	
860	8.590	-237.62184	67.49386	-268.48605	121.15099	19.53526	-263.17728	-257.48126	11.63866	364.15839	125.81552	57.90397	353.83716	-180.17325	1222.21643	-372.25687	-146.17401	589.94501	-398.17868	13.38398	591.85419	-400.25552	-133.36943	543.04504	546.59918	22.06556	538.04059	544.31097	
861	8.600	-238.44275	79.44373	-268.80887	122.09668	19.40667	-263.22293	-256.98834	11.68520	364.08957	128.61061	69.92021	354.16681	-180.38132	1220.95984	-370.90247	-145.78644	589.72754	-398.14667	15.03715	591.58612	-400.32544	-133.39795	542.44501	546.71851	21.26668	537.81824	544.62616	
862	8.610	-239.33000	91.13303	-268.76578	123.26847	19.07612	-263.41888	-256.02747	11.58598	363.78226	130.34688	81.61921	354.65326	-178.39299	1219.89392	-373.40619	-144.64467	588.77203	-398.07715	15.71838	590.95740	-399.93414	-133.40456	542.18475	546.90833	21.33621	537.69690	544.80615	
863	8.620	-239.99748	102.55620	-267.98553	124.16812	18.75613	-263.53204	-254.80582	11.29789	363.87845	131.26567	92.78052	355.85046	-177.28690	1218.65137	-373.69205	-143.07338	587.57263	-397.65262	15.82508	590.15527	-399.85706	-133.36295	542.15503	547.08978	21.46188	537.72882	545.07574	
864	8.630	-240.06311	112.75493	-266.74191	125.02817	18.31667	-263.35950	-254.56580	11.94078	363.72400	131.18985	103.56068	357.35394	-176.57788	1218.05164	-374.20175	-143.02690	587.04492	-397.91211	17.47131	589.15521	-399.31567	-133.17416	542.28125	547.28174	20.09546	538.34845	545.60669	
865	8.640	-239.60954	121.97947	-265.29333	126.16115	18.12120	-263.25537	-253.49170	12.08847	363.54712	130.34947	113.21498	358.88660	-175.70415	1217.40869	-374.84088	-141.64679	585.80231	-397.52750	17.93418	588.37970	-398.94360	-132.60133	542.70703	547.46356	23.18124	538.28577	545.83417	
866	8.650	-239.29213	129.92558	-264.24564	127.03197	18.08659	-263.25986	-252.63042	12.34160	363.59933	129.82350	121.81430	360.21027	-175.73465	1216.90332	-375.83325	-140.43526	584.93042	-397.17728	19.75330	587.42023	-398.91431	-131.99055	543.13385	547.72156	23.59343	538.66223	546.11957	
867	8.660	-239.55424	136.59413	-263.41122	128.22534	17.98839	-263.25995	-252.18028	12.53403	363.45053	129.74716	129.42250	361.07813	-175.34923	1215.71863	-376.46521	-139.90227	584.44702	-397.33569	20.17206	586.75336	-398.38034	-131.96204	543.48981	548.04803	23.67361	538.99176	546.27850	
868	8.670	-239.86459	141.70096	-262.75989	128.89470	17.66947	-263.24686	-250.99504	12.35537	363.26440	130.12268	135.15710	361.72632	-174.45444	1214.51880	-377.16370	-138.55128	583.55072	-397.30679	21.85072	585.76874	-398.23404	-131.54837	543.46307	548.39081	23.86427	539.29242	546.69958	
869	8.680	-240.85423	145.57077	-262.20981	129.48006	17.27826	-263.26266	-250.06712	12.45155	363.49817	131.94528	138.84081	362.68771	-172.47081	1213.91992	-377.92523	-136.62103	582.54657	-396.83948	22.87226	585.32764	-398.07108	-131.45821	543.89209	548.26965	24.18218	539.65503	547.06281	
870	8.690	-241.51917	147.10791	-261.79071	130.65689	17.21741	-263.19128	-249.55432	12.66542	363.54776	132.41272	139.05383	363.34506	-171.27675	1213.26758	-377.90427	-136.38092	582.47412	-397.10056	24.25473	584.76672	-397.83725	-130.80542	544.48328	548.23706	24.24086	539.99866	547.24017	
871	8.700	-241.29543	144.54257	-261.18216	131.72963	17.27664	-263.24686	-248.50897	12.85079	363.28821	132.99776	136.59885	364.76138	-170.10457	1213.14148	-379.01413	-134.91090	582.03345	-397.15286	25.48397	584.51093	-397.58432	-130.73579	544.80957	548.45740	24.15983	540.01178	546.15582	
872	8.710	-240.64003	140.58011	-260.50034	132.40051	17.04014	-263.46585	-247.54034	12.99579	363.02530	133.21474	132.64493	365.70087	-168.65654	1213.20471	-378.96985	-133.37531	581.54425	-396.92142	26.61584	584.25159	-397.72449	-130.62772	545.21198	548.44696	24.18416	540.48138	546.09869	
873	8.720	-239.39342	135.28123	-260.17523	133.41476	16.77475	-263.20422	-246.82593	13.16348	362.88577	133.05873	127.61134	366.90717	-167.05704	1213.05566	-379.02982	-131.77463	581.16504	-396.97147	27.42956	583.79706	-397.29898	-130.23885	545.09283	548.62427	30.39799	543.01825	549.65308	
874	8.730	-237.65918	128.90324	-259.90158	134.25957	16.61931	-263.32510	-246.01907	13.23972	362.82217	132.70824	121.64263	367.51443	-166.67334	1212.91675	-380.16946	-131.22867	581.23413	-397.24731	28.84510	583.80084	-397.11877	-129.98300	545.86938	548.14648	30.53619	543.19855	549.71045	
875	8.740	-236.99669	122.30512	-260.13083	135.15103	16.43732	-263.57126	-245.08333	13.27325	362.68719	132.45303	114.45626	368.07892	-165.73186	1212.55859	-380.81070	-129.24664	580.99005	-397.05954	30.45453	583.87006	-397.66086	-129.59920	546.13776	548.06445	30.89470	543.35822	549.78107	
876	8.750	-236.80072	115.06931	-260.62546	136.04251	16.37482	-263.46286	-244.33430	13.48269	362.71811	132.75247	106.58161	368.58133	-163.98460	1212.73938	-380.85458	-128.68419	581.29590	-397.68323	31.90254	583.80609	-397.34232	-128.99371	546.15533	548.18066	31.36379	543.56134	549.77936	
877	8.760	-236.38026	107.51392	-261.38437	136.68925	16.07693	-263.48032	-243.36835	13.65550	362.61374	132.81717	97.36473	368.65750	-162.74760	1212.89514	-380.99988	-127.18971	581.36456	-397.91965	33.07391	583.80389	-397.06836	-128.83258	546.48895	547.69598	31.57043	543.59296	549.73456	
878	8.770	-235.49741	99.16922	-262.30145	137.49799	15.93114	-263.49695	-243.02501	14.09132	362.11865	132.86124	87.40472	368.46527	-161.30312	1212.80872	-381.37915	-125.64555	581.25726	-398.16806	34.37887	583.49426	-397.32956	-128.54669	546.62347	547.46960	31.99949	543.65936	549.62787	
879	8.780	-234.47340	90.45057	-262.79398	138.61034	15.83677	-263.45892	-242.23889	14.08617	361.92255	133.17561	77.36378	368.79306	-160.22412	1212.37964	-382.24207	-124.17001	580.91699	-398.40536	36.04857	583.13989	-397.73975	-128.33925	546.63055	547.20557	32.35087	543.75085	549.58868	
880	8.790	-232.77386	81.15345	-263.29510	139.52466	15.47983	-263.53656	-241.66245	14.16977	361.85919	133.29866	68.25244	368.71289	-158.34889	1212.15906	-382.71158	-122.14442	580.51294	-398.29529	37.54431	582.99170	-397.74722	-128.63029	547.07428	547.23950	32.62577	543.75494	549.51508	
881	8.800	-231.59619	71.44267	-263.50961	140.00908	15.37340	-263.64313	-240.59003	14.19672	361.73233	133.10289	58.89638	368.60986	-156.05202	1212.06531	-382.09946	-121.75048	580.68530	-399.05649	38.79930	582.96222	-397.79736	-127.12900	546.77094	546.74683	33.28469	543.87274	549.40253	
882	8.810	-230.34370	62.11815	-263.95081	140.85754	15.00738	-263.76425	-240.01489	14.47171	361.63596	133.15099	52.01984	367.78461	-155.17542	1212.26111	-383.32318	-120.41608	580.64001	-399.33279	40.11062	582.68628	-398.17490	-126.18296	546.99683	546.47577	34.39713	543.78760	549.14948	
